<svg xmlns="http://www.w3.org/2000/svg" width="36" height="34" viewBox="0 0 36 34" fill="none">
  <g clip-path="url(#clip0_7614_3598)">
    <path d="M6.19092 20.3213L23.8499 33.1501" stroke="#7A7A7A" stroke-width="1.5"/>
    <path d="M10.3721 19.5063L28.7413 33.0054" stroke="#7A7A7A" stroke-width="1.5" stroke-linecap="round"/>
    <path d="M1.00003 29.5233C1.00003 24.0984 5.39776 19.7007 10.8226 19.7007H25.1774C30.6022 19.7007 35 24.0984 35 29.5233V33.0007H1.00003V29.5233Z" stroke="#7A7A7A" stroke-width="2.00007"/>
    <path d="M23.1743 25.0288H25.4048" stroke="#7A7A7A" stroke-width="1.5" stroke-linecap="round"/>
    <path d="M16.7622 16.0562H18.8997" stroke="#7A7A7A" stroke-linecap="round"/>
    <path fill-rule="evenodd" clip-rule="evenodd" d="M18.0002 20.4002C23.7555 20.4002 28.4212 16.2141 28.4212 11.0502C28.4212 5.88633 23.7555 1.7002 18.0002 1.7002C12.2448 1.7002 7.5791 5.88633 7.5791 11.0502C7.5791 16.2141 12.2448 20.4002 18.0002 20.4002ZM18.0002 18.7002C21.6627 18.7002 24.6317 16.0363 24.6317 12.7502C24.6317 9.4641 21.6627 6.80019 18.0002 6.80019C14.3376 6.80019 11.3686 9.4641 11.3686 12.7502C11.3686 16.0363 14.3376 18.7002 18.0002 18.7002Z" fill="#7A7A7A"/>
    <path d="M28.1293 10.2002H7.37637L5.3999 7.60297V5.59603L17.9999 1.7002L30.5999 5.59603V7.60297L28.1293 10.2002Z" fill="white" stroke="#7A7A7A" stroke-width="2"/>
    <mask id="path-8-inside-1_7614_3598" fill="white">
      <ellipse cx="15.1578" cy="12.7504" rx="0.947368" ry="0.85"/>
    </mask>
    <ellipse cx="15.1578" cy="12.7504" rx="0.947368" ry="0.85" fill="#7A7A7A"/>
    <path d="M14.994 12.7504C14.994 12.6366 15.0479 12.5583 15.0857 12.5244C15.1216 12.4922 15.1502 12.4892 15.1578 12.4892V14.7115C16.1783 14.7115 17.2163 13.9438 17.2163 12.7504H14.994ZM15.1578 12.4892C15.1654 12.4892 15.1941 12.4922 15.23 12.5244C15.2678 12.5583 15.3216 12.6366 15.3216 12.7504H13.0993C13.0993 13.9438 14.1373 14.7115 15.1578 14.7115V12.4892ZM15.3216 12.7504C15.3216 12.8642 15.2678 12.9425 15.23 12.9764C15.1941 13.0086 15.1654 13.0115 15.1578 13.0115V10.7892C14.1373 10.7892 13.0993 11.557 13.0993 12.7504H15.3216ZM15.1578 13.0115C15.1502 13.0115 15.1216 13.0086 15.0857 12.9764C15.0479 12.9425 14.994 12.8642 14.994 12.7504H17.2163C17.2163 11.557 16.1783 10.7892 15.1578 10.7892V13.0115Z" fill="#7A7A7A" mask="url(#path-8-inside-1_7614_3598)"/>
    <mask id="path-10-inside-2_7614_3598" fill="white">
      <ellipse cx="20.8419" cy="12.7504" rx="0.947368" ry="0.85"/>
    </mask>
    <ellipse cx="20.8419" cy="12.7504" rx="0.947368" ry="0.85" fill="#7A7A7A"/>
    <path d="M20.6781 12.7504C20.6781 12.6366 20.7319 12.5583 20.7697 12.5244C20.8056 12.4922 20.8343 12.4892 20.8419 12.4892V14.7115C21.8624 14.7115 22.9004 13.9438 22.9004 12.7504H20.6781ZM20.8419 12.4892C20.8495 12.4892 20.8782 12.4922 20.9141 12.5244C20.9519 12.5583 21.0057 12.6366 21.0057 12.7504H18.7834C18.7834 13.9438 19.8214 14.7115 20.8419 14.7115V12.4892ZM21.0057 12.7504C21.0057 12.8642 20.9519 12.9425 20.9141 12.9764C20.8782 13.0086 20.8495 13.0115 20.8419 13.0115V10.7892C19.8214 10.7892 18.7834 11.557 18.7834 12.7504H21.0057ZM20.8419 13.0115C20.8343 13.0115 20.8056 13.0086 20.7697 12.9764C20.7319 12.9425 20.6781 12.8642 20.6781 12.7504H22.9004C22.9004 11.557 21.8624 10.7892 20.8419 10.7892V13.0115Z" fill="#7A7A7A" mask="url(#path-10-inside-2_7614_3598)"/>
    <path d="M18.0001 3.40039L18.7073 5.1624H20.9959L19.1444 6.25138L19.8516 8.01338L18.0001 6.9244L16.1486 8.01338L16.8558 6.25138L15.0043 5.1624H17.2929L18.0001 3.40039Z" fill="#7A7A7A"/>
  </g>
  <defs>
    <clipPath id="clip0_7614_3598">
      <rect width="36" height="34" fill="white"/>
    </clipPath>
  </defs>
</svg>