<svg xmlns="http://www.w3.org/2000/svg" width="35" height="34" viewBox="0 0 35 34" fill="none">
  <path d="M9.3335 26.9168V7.0835" stroke="#7A7A7A" stroke-width="2" stroke-linecap="round" stroke-linejoin="round"/>
  <path d="M15 26.9166V9.6333" stroke="#7A7A7A" stroke-width="2" stroke-linecap="round" stroke-linejoin="round"/>
  <path d="M20.667 26.9167V15.8667" stroke="#7A7A7A" stroke-width="2" stroke-linecap="round" stroke-linejoin="round"/>
  <path d="M26.3335 7.0835V12.7502" stroke="#7A7A7A" stroke-width="2" stroke-linecap="round" stroke-linejoin="round"/>
  <path d="M26.3335 26.9165V18.4165" stroke="#7A7A7A" stroke-width="2" stroke-linecap="round" stroke-linejoin="round"/>
  <path d="M32 26.9167V12.75" stroke="#7A7A7A" stroke-width="2" stroke-linecap="round" stroke-linejoin="round"/>
  <path d="M3.66699 26.9168V12.7502C3.66699 11.2473 4.26401 9.80593 5.32672 8.74322C6.38943 7.68052 7.83077 7.0835 9.33366 7.0835C12.167 7.0835 15.0003 8.96766 17.8337 12.7502C20.667 16.5327 23.5003 18.4168 26.3337 18.4168C27.28 18.4159 28.2111 18.1781 29.0419 17.7249C29.8726 17.2717 30.5767 16.6177 31.0898 15.8225C31.6029 15.0274 31.9087 14.1163 31.9792 13.1726C32.0498 12.2289 31.8829 11.2826 31.4937 10.4199C31.1046 9.55729 30.5056 8.80586 29.7514 8.2342C28.9972 7.66255 28.1119 7.28887 27.1762 7.14728C26.2405 7.00569 25.2842 7.1007 24.3947 7.42363C23.5051 7.74655 22.7106 8.28712 22.0837 8.996" stroke="#7A7A7A" stroke-width="2" stroke-linecap="round" stroke-linejoin="round"/>
</svg>