<svg xmlns="http://www.w3.org/2000/svg" width="35" height="34" viewBox="0 0 35 34" fill="none">
  <path d="M26.3748 29.7502C29.1132 29.7502 31.3332 27.5302 31.3332 24.7918C31.3332 22.0534 29.1132 19.8335 26.3748 19.8335C23.6364 19.8335 21.4165 22.0534 21.4165 24.7918C21.4165 27.5302 23.6364 29.7502 26.3748 29.7502Z" stroke="#7A7A7A" stroke-width="2" stroke-linecap="round" stroke-linejoin="round"/>
  <path d="M7.95833 29.7502C10.6967 29.7502 12.9167 27.5302 12.9167 24.7918C12.9167 22.0534 10.6967 19.8335 7.95833 19.8335C5.21992 19.8335 3 22.0534 3 24.7918C3 27.5302 5.21992 29.7502 7.95833 29.7502Z" stroke="#7A7A7A" stroke-width="2" stroke-linecap="round" stroke-linejoin="round"/>
  <path d="M21.4167 8.49984C22.1991 8.49984 22.8333 7.86557 22.8333 7.08317C22.8333 6.30077 22.1991 5.6665 21.4167 5.6665C20.6343 5.6665 20 6.30077 20 7.08317C20 7.86557 20.6343 8.49984 21.4167 8.49984Z" stroke="#7A7A7A" stroke-width="2" stroke-linecap="round" stroke-linejoin="round"/>
  <path d="M17.1665 24.7918V19.8335L12.9165 15.5835L18.5832 11.3335L21.4165 15.5835H24.2498" stroke="#7A7A7A" stroke-width="2" stroke-linecap="round" stroke-linejoin="round"/>
</svg>