<svg xmlns="http://www.w3.org/2000/svg" width="35" height="34" viewBox="0 0 35 34" fill="none">
  <path d="M3.66699 9.91683L9.91449 3.66933C10.1781 3.40418 10.4915 3.19381 10.8368 3.05036C11.182 2.9069 11.5523 2.8332 11.9262 2.8335H23.7412C24.115 2.8332 24.4853 2.9069 24.8305 3.05036C25.1758 3.19381 25.4892 3.40418 25.7528 3.66933L32.0003 9.91683" stroke="#7A7A7A" stroke-width="2" stroke-linecap="round" stroke-linejoin="round"/>
  <path d="M6.5 17V28.3333C6.5 29.0848 6.79851 29.8054 7.32986 30.3368C7.86122 30.8682 8.58189 31.1667 9.33333 31.1667H26.3333C27.0848 31.1667 27.8054 30.8682 28.3368 30.3368C28.8682 29.8054 29.1667 29.0848 29.1667 28.3333V17" stroke="#7A7A7A" stroke-width="2" stroke-linecap="round" stroke-linejoin="round"/>
  <path d="M22.0835 31.1665V25.4998C22.0835 24.7484 21.785 24.0277 21.2536 23.4964C20.7223 22.965 20.0016 22.6665 19.2502 22.6665H16.4168C15.6654 22.6665 14.9447 22.965 14.4134 23.4964C13.882 24.0277 13.5835 24.7484 13.5835 25.4998V31.1665" stroke="#7A7A7A" stroke-width="2" stroke-linecap="round" stroke-linejoin="round"/>
  <path d="M3.66699 9.9165H32.0003" stroke="#7A7A7A" stroke-width="2" stroke-linecap="round" stroke-linejoin="round"/>
  <path d="M32.0003 9.9165V14.1665C32.0003 14.918 31.7018 15.6386 31.1705 16.17C30.6391 16.7013 29.9184 16.9998 29.167 16.9998C28.3393 16.9543 27.5488 16.6411 26.9145 16.1073C26.7455 15.9852 26.5422 15.9194 26.3337 15.9194C26.1251 15.9194 25.9219 15.9852 25.7528 16.1073C25.1185 16.6411 24.328 16.9543 23.5003 16.9998C22.6726 16.9543 21.8821 16.6411 21.2478 16.1073C21.0788 15.9852 20.8755 15.9194 20.667 15.9194C20.4584 15.9194 20.2552 15.9852 20.0862 16.1073C19.4519 16.6411 18.6614 16.9543 17.8337 16.9998C17.006 16.9543 16.2154 16.6411 15.5812 16.1073C15.4121 15.9852 15.2089 15.9194 15.0003 15.9194C14.7918 15.9194 14.5885 15.9852 14.4195 16.1073C13.7852 16.6411 12.9947 16.9543 12.167 16.9998C11.3393 16.9543 10.5488 16.6411 9.91449 16.1073C9.74546 15.9852 9.54221 15.9194 9.33366 15.9194C9.12511 15.9194 8.92186 15.9852 8.75283 16.1073C8.11854 16.6411 7.32803 16.9543 6.50033 16.9998C5.74888 16.9998 5.02821 16.7013 4.49686 16.17C3.9655 15.6386 3.66699 14.918 3.66699 14.1665V9.9165" stroke="#7A7A7A" stroke-width="2" stroke-linecap="round" stroke-linejoin="round"/>
</svg>