<svg xmlns="http://www.w3.org/2000/svg" width="35" height="34" viewBox="0 0 35 34" fill="none">
  <path d="M3.3335 8.50016C4.1835 9.2085 5.0335 9.91683 6.87516 9.91683C10.4168 9.91683 10.4168 7.0835 13.9585 7.0835C17.6418 7.0835 17.3585 9.91683 21.0418 9.91683C24.5835 9.91683 24.5835 7.0835 28.1252 7.0835C29.9668 7.0835 30.8168 7.79183 31.6668 8.50016" stroke="#7A7A7A" stroke-width="2" stroke-linecap="round" stroke-linejoin="round"/>
  <path d="M3.3335 17.0002C4.1835 17.7085 5.0335 18.4168 6.87516 18.4168C10.4168 18.4168 10.4168 15.5835 13.9585 15.5835C17.6418 15.5835 17.3585 18.4168 21.0418 18.4168C24.5835 18.4168 24.5835 15.5835 28.1252 15.5835C29.9668 15.5835 30.8168 16.2918 31.6668 17.0002" stroke="#7A7A7A" stroke-width="2" stroke-linecap="round" stroke-linejoin="round"/>
  <path d="M3.3335 25.5002C4.1835 26.2085 5.0335 26.9168 6.87516 26.9168C10.4168 26.9168 10.4168 24.0835 13.9585 24.0835C17.6418 24.0835 17.3585 26.9168 21.0418 26.9168C24.5835 26.9168 24.5835 24.0835 28.1252 24.0835C29.9668 24.0835 30.8168 24.7918 31.6668 25.5002" stroke="#7A7A7A" stroke-width="2" stroke-linecap="round" stroke-linejoin="round"/>
</svg>