<svg xmlns="http://www.w3.org/2000/svg" width="33" height="34" viewBox="0 0 33 34" fill="none">
  <path d="M24.5002 2.8335H8.50016C7.0274 2.8335 5.8335 4.10202 5.8335 5.66683V28.3335C5.8335 29.8983 7.0274 31.1668 8.50016 31.1668H24.5002C25.9729 31.1668 27.1668 29.8983 27.1668 28.3335V5.66683C27.1668 4.10202 25.9729 2.8335 24.5002 2.8335Z" stroke="#7A7A7A" stroke-width="2" stroke-linecap="round" stroke-linejoin="round"/>
  <path d="M16.5 8.5H16.5133" stroke="#7A7A7A" stroke-width="2" stroke-linecap="round" stroke-linejoin="round"/>
  <path d="M16.4998 25.4998C19.4454 25.4998 21.8332 22.9628 21.8332 19.8332C21.8332 16.7036 19.4454 14.1665 16.4998 14.1665C13.5543 14.1665 11.1665 16.7036 11.1665 19.8332C11.1665 22.9628 13.5543 25.4998 16.4998 25.4998Z" stroke="#7A7A7A" stroke-width="2" stroke-linecap="round" stroke-linejoin="round"/>
  <path d="M16.5 19.8335H16.5133" stroke="#7A7A7A" stroke-width="2" stroke-linecap="round" stroke-linejoin="round"/>
</svg>