<svg xmlns="http://www.w3.org/2000/svg" width="35" height="34" viewBox="0 0 35 34" fill="none">
  <path d="M12.8753 20.5417C13.8146 20.5417 14.7155 20.1685 15.3797 19.5043C16.0439 18.8401 16.417 17.9393 16.417 17C16.417 15.045 15.7087 14.1667 15.0003 12.75C13.4817 9.71408 14.683 7.00683 17.8337 4.25C18.542 7.79167 20.667 11.1917 23.5003 13.4583C26.3337 15.725 27.7503 18.4167 27.7503 21.25C27.7503 22.5523 27.4938 23.8418 26.9955 25.0449C26.4971 26.2481 25.7666 27.3413 24.8458 28.2621C23.925 29.183 22.8317 29.9134 21.6286 30.4118C20.4255 30.9102 19.1359 31.1667 17.8337 31.1667C16.5314 31.1667 15.2419 30.9102 14.0387 30.4118C12.8356 29.9134 11.7424 29.183 10.8215 28.2621C9.90067 27.3413 9.17021 26.2481 8.67185 25.0449C8.17349 23.8418 7.91699 22.5523 7.91699 21.25C7.91699 19.6166 8.53041 18.0002 9.33366 17C9.33366 17.9393 9.7068 18.8401 10.371 19.5043C11.0352 20.1685 11.936 20.5417 12.8753 20.5417Z" stroke="#7A7A7A" stroke-width="2" stroke-linecap="round" stroke-linejoin="round"/>
</svg>