<svg xmlns="http://www.w3.org/2000/svg" width="36" height="34" viewBox="0 0 36 34" fill="none">
  <g clip-path="url(#clip0_7614_3619)">
    <path d="M26.5056 19.9487H32.4577C32.737 19.9489 33.0115 20.0194 33.2554 20.1536C33.4992 20.2878 33.7043 20.4813 33.851 20.7156C33.9978 20.9499 34.0814 21.2174 34.094 21.4925C34.1066 21.7677 34.0476 22.0415 33.9228 22.2879L30.5895 28.8655C30.4631 29.1148 30.2735 29.3276 30.0392 29.4832C29.8048 29.6389 29.5336 29.7321 29.252 29.7539C28.9703 29.7757 28.6877 29.7253 28.4316 29.6076C28.1755 29.4899 27.9546 29.3089 27.7904 29.0821L24.3096 24.281" stroke="#7A7A7A" stroke-width="2" stroke-linecap="round" stroke-linejoin="round"/>
    <path d="M27.0888 15.1852C27.4772 15.377 27.7726 15.713 27.9099 16.1195C28.0473 16.526 28.0154 16.9696 27.8214 17.353L22.7312 27.3932C22.6349 27.5832 22.5017 27.7525 22.339 27.8916C22.1764 28.0307 21.9876 28.1369 21.7833 28.204C21.5791 28.2711 21.3635 28.2978 21.1488 28.2827C20.934 28.2676 20.7244 28.2109 20.5319 28.1158L4.97148 20.4341C3.84125 19.8725 2.98255 18.8922 2.58328 17.7076C2.18401 16.5231 2.27669 15.2307 2.84103 14.1134L5.10258 9.60329C5.38446 9.04918 5.77423 8.55526 6.24964 8.14976C6.72506 7.74425 7.27679 7.4351 7.87335 7.23995C8.4699 7.0448 9.09958 6.96748 9.72643 7.01241C10.3533 7.05734 10.965 7.22363 11.5267 7.5018L27.0888 15.1852Z" stroke="#7A7A7A" stroke-width="2" stroke-linecap="round" stroke-linejoin="round"/>
    <path d="M2.3335 31.2645H8.49541C9.10624 31.2687 9.70611 31.1044 10.2273 30.7902C10.7486 30.476 11.1704 30.0244 11.4453 29.4863L13.8051 24.7983" stroke="#7A7A7A" stroke-width="2" stroke-linecap="round" stroke-linejoin="round"/>
    <path d="M2.3335 34.4974V28.0312" stroke="#7A7A7A" stroke-width="2" stroke-linecap="round" stroke-linejoin="round"/>
    <path d="M10.542 12.75H10.5562" stroke="#7A7A7A" stroke-width="2" stroke-linecap="round" stroke-linejoin="round"/>
  </g>
  <defs>
    <clipPath id="clip0_7614_3619">
      <rect width="35" height="34" fill="white" transform="translate(0.333496)"/>
    </clipPath>
  </defs>
</svg>