<svg xmlns="http://www.w3.org/2000/svg" width="31" height="34" viewBox="0 0 31 34" fill="none">
  <path d="M7.00244 32.2992C7.00244 32.2992 7.00244 10.9614 7.00244 10.526C7.00244 10.0905 23.3316 10.0901 23.3316 10.526C23.3316 10.9618 23.3316 32.2992 23.3316 32.2992" stroke="#7A7A7A" stroke-width="1.8"/>
  <path fill-rule="evenodd" clip-rule="evenodd" d="M0.712251 0.585786C0.126465 1.17157 0.126465 2.11438 0.126465 4V30C0.126465 31.8856 0.126465 32.8284 0.712251 33.4142C1.29804 34 2.24085 34 4.12646 34H26.2065C28.0921 34 29.0349 34 29.6207 33.4142C30.2065 32.8284 30.2065 31.8856 30.2065 30V4C30.2065 2.11438 30.2065 1.17157 29.6207 0.585786C29.0349 0 28.0921 0 26.2065 0H4.12646C2.24085 0 1.29804 0 0.712251 0.585786ZM28.3718 1.83825H1.89209V32.1626H28.3718V1.83825Z" fill="#7A7A7A"/>
  <path d="M15.1665 11.0498V32.0931" stroke="#7A7A7A" stroke-width="1.8"/>
  <path d="M9.71125 4.3864C10.1064 3.96444 10.776 3.96444 11.1711 4.3864L12.4465 5.7484C13.0447 6.38721 12.5918 7.43193 11.7166 7.43193H9.16574C8.29057 7.43193 7.83761 6.38721 8.43582 5.7484L9.71125 4.3864Z" fill="#7A7A7A"/>
  <path d="M18.7347 7.07747C19.1298 7.49943 19.7994 7.49943 20.1945 7.07747L21.47 5.71546C22.0682 5.07666 21.6152 4.03193 20.74 4.03193L18.1892 4.03193C17.314 4.03193 16.8611 5.07666 17.4593 5.71546L18.7347 7.07747Z" fill="#7A7A7A"/>
</svg>