<svg xmlns="http://www.w3.org/2000/svg" width="35" height="34" viewBox="0 0 35 34" fill="none">
  <path d="M10.4167 23.0916C13.5333 23.0916 16.0833 20.4991 16.0833 17.3541C16.0833 15.7108 15.2758 14.1525 13.6608 12.835C12.0458 11.5175 10.8275 9.56247 10.4167 7.5083C10.0058 9.56247 8.80167 11.5316 7.1725 12.835C5.54333 14.1383 4.75 15.725 4.75 17.3541C4.75 20.4991 7.3 23.0916 10.4167 23.0916Z" stroke="#7A7A7A" stroke-width="2" stroke-linecap="round" stroke-linejoin="round"/>
  <path d="M18.2933 9.34999C19.2676 7.79325 19.9583 6.07613 20.3333 4.27832C21.0416 7.81999 23.1666 11.22 25.9999 13.4867C28.8333 15.7533 30.2499 18.445 30.2499 21.2783C30.258 23.2366 29.6845 25.1531 28.6021 26.785C27.5196 28.4169 25.977 29.6907 24.1698 30.4448C22.3626 31.199 20.3721 31.3996 18.4508 31.0211C16.5294 30.6427 14.7637 29.7023 13.3774 28.3192" stroke="#7A7A7A" stroke-width="2" stroke-linecap="round" stroke-linejoin="round"/>
</svg>