<svg xmlns="http://www.w3.org/2000/svg" width="35" height="34" viewBox="0 0 35 34" fill="none">
  <path d="M24.9167 29.75V26.9167C24.5409 26.9167 24.1806 26.7674 23.9149 26.5017C23.6493 26.2361 23.5 25.8757 23.5 25.5V24.0833C23.5 23.3319 23.7985 22.6112 24.3299 22.0799C24.8612 21.5485 25.5819 21.25 26.3333 21.25H29.1667C29.9181 21.25 30.6388 21.5485 31.1701 22.0799C31.7015 22.6112 32 23.3319 32 24.0833V25.5C32 25.8757 31.8507 26.2361 31.5851 26.5017C31.3194 26.7674 30.9591 26.9167 30.5833 26.9167" stroke="#7A7A7A" stroke-width="2" stroke-linecap="round" stroke-linejoin="round"/>
  <path d="M27.7503 21.25V9.20833C27.7503 7.8933 27.2279 6.63213 26.2981 5.70226C25.3682 4.77239 24.107 4.25 22.792 4.25C21.477 4.25 20.2158 4.77239 19.2859 5.70226C18.3561 6.63213 17.8337 7.8933 17.8337 9.20833V24.7917C17.8337 26.1067 17.3113 27.3679 16.3814 28.2977C15.4515 29.2276 14.1904 29.75 12.8753 29.75C11.5603 29.75 10.2991 29.2276 9.36925 28.2977C8.43939 27.3679 7.91699 26.1067 7.91699 24.7917V12.75" stroke="#7A7A7A" stroke-width="2" stroke-linecap="round" stroke-linejoin="round"/>
  <path d="M30.5837 29.7498V26.9165H24.917" stroke="#7A7A7A" stroke-width="2" stroke-linecap="round" stroke-linejoin="round"/>
  <path d="M5.0835 7.08333H10.7502V4.25" stroke="#7A7A7A" stroke-width="2" stroke-linecap="round" stroke-linejoin="round"/>
  <path d="M10.7503 7.08333C11.126 7.08333 11.4864 7.23259 11.7521 7.49827C12.0177 7.76394 12.167 8.12428 12.167 8.5V9.91667C12.167 10.6681 11.8685 11.3888 11.3371 11.9201C10.8058 12.4515 10.0851 12.75 9.33366 12.75H6.50033C5.74888 12.75 5.02821 12.4515 4.49686 11.9201C3.9655 11.3888 3.66699 10.6681 3.66699 9.91667V8.5C3.66699 8.12428 3.81625 7.76394 4.08192 7.49827C4.3476 7.23259 4.70794 7.08333 5.08366 7.08333V4.25" stroke="#7A7A7A" stroke-width="2" stroke-linecap="round" stroke-linejoin="round"/>
</svg>