<svg xmlns="http://www.w3.org/2000/svg" width="35" height="34" viewBox="0 0 35 34" fill="none">
  <path d="M24.2497 29.75V26.9167C23.874 26.9167 23.5136 26.7674 23.2479 26.5017C22.9823 26.2361 22.833 25.8757 22.833 25.5V24.0833C22.833 23.3319 23.1315 22.6112 23.6629 22.0799C24.1942 21.5485 24.9149 21.25 25.6663 21.25H28.4997C29.2511 21.25 29.9718 21.5485 30.5031 22.0799C31.0345 22.6112 31.333 23.3319 31.333 24.0833V25.5C31.333 25.8757 31.1838 26.2361 30.9181 26.5017C30.6524 26.7674 30.2921 26.9167 29.9163 26.9167" stroke="#7A7A7A" stroke-width="2" stroke-linecap="round" stroke-linejoin="round"/>
  <path d="M27.0833 21.25V9.20833C27.0833 7.8933 26.5609 6.63213 25.6311 5.70226C24.7012 4.77239 23.44 4.25 22.125 4.25C20.81 4.25 19.5488 4.77239 18.6189 5.70226C17.6891 6.63213 17.1667 7.8933 17.1667 9.20833V24.7917C17.1667 26.1067 16.6443 27.3679 15.7144 28.2977C14.7845 29.2276 13.5234 29.75 12.2083 29.75C10.8933 29.75 9.63213 29.2276 8.70226 28.2977C7.77239 27.3679 7.25 26.1067 7.25 24.7917V12.75" stroke="#7A7A7A" stroke-width="2" stroke-linecap="round" stroke-linejoin="round"/>
  <path d="M29.9167 29.7498V26.9165H24.25" stroke="#7A7A7A" stroke-width="2" stroke-linecap="round" stroke-linejoin="round"/>
  <path d="M4.4165 7.08333H10.0832V4.25" stroke="#7A7A7A" stroke-width="2" stroke-linecap="round" stroke-linejoin="round"/>
  <path d="M10.0833 7.08333C10.4591 7.08333 10.8194 7.23259 11.0851 7.49827C11.3507 7.76394 11.5 8.12428 11.5 8.5V9.91667C11.5 10.6681 11.2015 11.3888 10.6701 11.9201C10.1388 12.4515 9.41811 12.75 8.66667 12.75H5.83333C5.08189 12.75 4.36122 12.4515 3.82986 11.9201C3.29851 11.3888 3 10.6681 3 9.91667V8.5C3 8.12428 3.14926 7.76394 3.41493 7.49827C3.68061 7.23259 4.04094 7.08333 4.41667 7.08333V4.25" stroke="#7A7A7A" stroke-width="2" stroke-linecap="round" stroke-linejoin="round"/>
</svg>