<svg xmlns="http://www.w3.org/2000/svg" width="45" height="38" viewBox="0 0 45 38" fill="none">
  <path d="M34.9087 1.90234L34.9087 33.0397" stroke="#7A7A7A" stroke-width="1.8" stroke-linecap="round"/>
  <path d="M30.1435 33.2684C28.9318 33.4662 28.448 33.6644 26.7508 34.6532C25.0537 35.6421 25.7815 36.6317 26.7508 36.6317C27.7202 36.6317 40.3214 36.4341 42.7447 36.6317C45.168 36.8292 43.4717 35.3834 42.7447 35.2468C42.0177 35.1102 40.0791 35.4449 39.1097 35.2468C38.1404 35.0486 37.8993 33.6637 36.4441 33.2684C34.9888 32.873 31.3551 33.0705 30.1435 33.2684Z" fill="#7A7A7A" stroke="#7A7A7A" stroke-width="0.988904" stroke-linecap="round"/>
  <path d="M22.5098 9.57422C22.5098 9.57422 27.5313 17.697 28.0021 17.697C28.4729 17.697 34.9068 15.1761 34.9068 15.1761" stroke="#7A7A7A" stroke-width="1.8" stroke-linecap="round"/>
  <path d="M16.0015 24H2.00146L4.73924 32H12.9723L16.0015 24Z" fill="#7A7A7A" stroke="#7A7A7A" stroke-width="0.988904" stroke-linecap="round"/>
  <path d="M8.49682 9.5C8.49682 9.5 0.501465 15.5 1.02202 15.8056C1.54258 16.1111 8.49682 19 8.49682 19" stroke="#7A7A7A" stroke-width="1.8" stroke-linecap="round"/>
  <path d="M22.0015 29L21.8608 36.6503" stroke="#7A7A7A" stroke-width="1.8" stroke-linecap="round"/>
  <path d="M10.7686 27.625V36.6503" stroke="#7A7A7A" stroke-width="1.8" stroke-linecap="round"/>
  <mask id="path-8-inside-1_7614_3697" fill="white">
    <path fill-rule="evenodd" clip-rule="evenodd" d="M15.9907 8C18.1999 8 19.9907 6.20914 19.9907 4C19.9907 1.79086 18.1999 0 15.9907 0C13.7816 0 11.9907 1.79086 11.9907 4C11.9907 6.20914 13.7816 8 15.9907 8ZM15.9907 7C17.6476 7 18.9907 5.88071 18.9907 4.5C18.9907 3.11929 17.6476 2 15.9907 2C14.3339 2 12.9907 3.11929 12.9907 4.5C12.9907 5.88071 14.3339 7 15.9907 7Z"/>
  </mask>
  <path fill-rule="evenodd" clip-rule="evenodd" d="M15.9907 8C18.1999 8 19.9907 6.20914 19.9907 4C19.9907 1.79086 18.1999 0 15.9907 0C13.7816 0 11.9907 1.79086 11.9907 4C11.9907 6.20914 13.7816 8 15.9907 8ZM15.9907 7C17.6476 7 18.9907 5.88071 18.9907 4.5C18.9907 3.11929 17.6476 2 15.9907 2C14.3339 2 12.9907 3.11929 12.9907 4.5C12.9907 5.88071 14.3339 7 15.9907 7Z" fill="#7A7A7A"/>
  <path d="M19.4963 4C19.4963 5.93606 17.9268 7.50555 15.9907 7.50555V8.49445C18.4729 8.49445 20.4852 6.48222 20.4852 4H19.4963ZM15.9907 0.494452C17.9268 0.494452 19.4963 2.06394 19.4963 4H20.4852C20.4852 1.51778 18.4729 -0.494452 15.9907 -0.494452V0.494452ZM12.4852 4C12.4852 2.06394 14.0547 0.494452 15.9907 0.494452V-0.494452C13.5085 -0.494452 11.4963 1.51778 11.4963 4H12.4852ZM15.9907 7.50555C14.0547 7.50555 12.4852 5.93606 12.4852 4H11.4963C11.4963 6.48222 13.5085 8.49445 15.9907 8.49445V7.50555ZM18.4963 4.5C18.4963 5.52705 17.4627 6.50555 15.9907 6.50555V7.49445C17.8324 7.49445 19.4852 6.23437 19.4852 4.5H18.4963ZM15.9907 2.49445C17.4627 2.49445 18.4963 3.47295 18.4963 4.5H19.4852C19.4852 2.76563 17.8324 1.50555 15.9907 1.50555V2.49445ZM13.4852 4.5C13.4852 3.47295 14.5187 2.49445 15.9907 2.49445V1.50555C14.149 1.50555 12.4963 2.76563 12.4963 4.5H13.4852ZM15.9907 6.50555C14.5187 6.50555 13.4852 5.52705 13.4852 4.5H12.4963C12.4963 6.23437 14.149 7.49445 15.9907 7.49445V6.50555Z" fill="#7A7A7A" mask="url(#path-8-inside-1_7614_3697)"/>
  <path d="M6.48185 25.8948L11.1347 14.9893H20.1303L24.473 28.076H5.55127L6.48185 25.8948Z" stroke="#7A7A7A" stroke-width="1.97781" stroke-linecap="round"/>
  <path d="M8.81348 9.57422H22.5154" stroke="#7A7A7A" stroke-width="1.8" stroke-linecap="round"/>
  <path d="M10.7669 14.7637L9.46191 10.0254" stroke="#7A7A7A" stroke-width="1.97781" stroke-linecap="round"/>
  <path d="M20.5559 14.7637L21.8608 10.0254" stroke="#7A7A7A" stroke-width="1.97781" stroke-linecap="round"/>
  <path d="M3.0204 24C3.0204 24 2.68412 21.7828 4.84576 20.3021C7.0074 18.8215 10.6393 18.3279 12.9111 20.302C15.183 22.2761 14.9978 23.9993 14.9978 23.9993" stroke="#7A7A7A" stroke-width="1.8" stroke-linecap="round"/>
</svg>