<svg xmlns="http://www.w3.org/2000/svg" width="35" height="34" viewBox="0 0 35 34" fill="none">
  <path d="M17.4998 31.1665V21.2498L14.6665 18.4165" stroke="#7A7A7A" stroke-width="2" stroke-linecap="round" stroke-linejoin="round"/>
  <path d="M24.5833 11.3333V12.4667C26.2302 13.4119 27.5131 14.8814 28.2276 16.6407C28.942 18.4001 29.0467 20.348 28.525 22.1738C28.0034 23.9997 26.8854 25.5982 25.3493 26.7146C23.8133 27.8309 21.9476 28.4008 20.05 28.3333H14.6666C12.7243 28.2015 10.8737 27.4574 9.38074 26.208C7.88775 24.9586 6.82914 23.2682 6.35697 21.3795C5.8848 19.4908 6.02337 17.5011 6.75277 15.6961C7.48217 13.8911 8.76487 12.3637 10.4166 11.3333C10.4166 9.45472 11.1629 7.65304 12.4913 6.32466C13.8197 4.99628 15.6213 4.25 17.5 4.25C19.3786 4.25 21.1803 4.99628 22.5086 6.32466C23.837 7.65304 24.5833 9.45472 24.5833 11.3333Z" stroke="#7A7A7A" stroke-width="2" stroke-linecap="round" stroke-linejoin="round"/>
  <path d="M20.3333 19.8335L17.5 22.6668" stroke="#7A7A7A" stroke-width="2" stroke-linecap="round" stroke-linejoin="round"/>
</svg>