<svg width="102" height="102" viewBox="0 0 102 102" fill="none" xmlns="http://www.w3.org/2000/svg">
<circle cx="51" cy="43.374" r="43.374" fill="#FF6E6E" fill-opacity="0.24"/>
<path d="M66.8934 39.2874C66.8934 51.5029 50.7597 63.7185 50.7597 63.7185C50.7597 63.7185 34.626 51.5029 34.626 39.2874C34.626 34.9677 36.3258 30.8249 39.3514 27.7705C42.3771 24.716 46.4808 23 50.7597 23C55.0386 23 59.1423 24.716 62.168 27.7705C65.1936 30.8249 66.8934 34.9677 66.8934 39.2874Z" fill="#EF5C5C" stroke="#EF5C5C" stroke-width="2" stroke-linecap="round" stroke-linejoin="round"/>
<path d="M62.5095 39.3256C62.4616 48.1549 50.6531 56.9205 50.6531 56.9205C50.6531 56.9205 38.9401 48.0275 38.988 39.1982C39.0049 36.0759 40.2602 33.0883 42.4777 30.8925C44.6952 28.6967 47.6934 27.4726 50.8125 27.4895C53.9316 27.5064 56.9163 28.7629 59.1099 30.9826C61.3035 33.2023 62.5264 36.2034 62.5095 39.3256Z" fill="white" stroke="#EF5C5C" stroke-width="2" stroke-linecap="round" stroke-linejoin="round"/>
<g clip-path="url(#clip0_49_5233)">
<path d="M45.3037 37.3256L50.7777 33.0681L56.2516 37.3256V44.016C56.2516 44.3386 56.1234 44.648 55.8953 44.8762C55.6672 45.1043 55.3578 45.2324 55.0352 45.2324H46.5201C46.1975 45.2324 45.8881 45.1043 45.66 44.8762C45.4319 44.648 45.3037 44.3386 45.3037 44.016V37.3256Z" stroke="#EF5C5C" stroke-width="2.4" stroke-linecap="round" stroke-linejoin="round"/>
<path d="M48.9531 45.2323V39.1501H52.6024V45.2323" stroke="#EF5C5C" stroke-width="2.4" stroke-linecap="round" stroke-linejoin="round"/>
</g>
<path d="M7.32273 92.3799C7.23485 92.1041 7.11667 91.8571 6.96818 91.639C6.82273 91.4177 6.64848 91.2299 6.44545 91.0753C6.24242 90.9177 6.01061 90.798 5.75 90.7162C5.49242 90.6344 5.20909 90.5935 4.9 90.5935C4.37576 90.5935 3.90303 90.7283 3.48182 90.998C3.06061 91.2677 2.72727 91.6632 2.48182 92.1844C2.23939 92.7026 2.11818 93.3374 2.11818 94.089C2.11818 94.8435 2.24091 95.4814 2.48636 96.0026C2.73182 96.5238 3.06818 96.9193 3.49545 97.189C3.92273 97.4587 4.40909 97.5935 4.95455 97.5935C5.46061 97.5935 5.90152 97.4905 6.27727 97.2844C6.65606 97.0783 6.94848 96.7874 7.15455 96.4117C7.36364 96.0329 7.46818 95.5874 7.46818 95.0753L7.83182 95.1435H5.16818V93.9844H8.82727V95.0435C8.82727 95.8253 8.66061 96.5041 8.32727 97.0799C7.99697 97.6526 7.53939 98.095 6.95455 98.4071C6.37273 98.7193 5.70606 98.8753 4.95455 98.8753C4.11212 98.8753 3.37273 98.6814 2.73636 98.2935C2.10303 97.9056 1.60909 97.3556 1.25455 96.6435C0.9 95.9283 0.722727 95.0799 0.722727 94.098C0.722727 93.3556 0.825758 92.689 1.03182 92.098C1.23788 91.5071 1.52727 91.0056 1.9 90.5935C2.27576 90.1783 2.71667 89.8617 3.22273 89.6435C3.73182 89.4223 4.28788 89.3117 4.89091 89.3117C5.39394 89.3117 5.86212 89.3859 6.29545 89.5344C6.73182 89.6829 7.1197 89.8935 7.45909 90.1662C7.80152 90.439 8.08485 90.7632 8.30909 91.139C8.53333 91.5117 8.68485 91.9253 8.76364 92.3799H7.32273ZM18.6966 94.0935C18.6966 95.0874 18.5148 95.942 18.1511 96.6571C17.7875 97.3693 17.289 97.9177 16.6557 98.3026C16.0254 98.6844 15.3087 98.8753 14.5057 98.8753C13.6996 98.8753 12.9799 98.6844 12.3466 98.3026C11.7163 97.9177 11.2193 97.3677 10.8557 96.6526C10.492 95.9374 10.3102 95.0844 10.3102 94.0935C10.3102 93.0996 10.492 92.2465 10.8557 91.5344C11.2193 90.8193 11.7163 90.2708 12.3466 89.889C12.9799 89.5041 13.6996 89.3117 14.5057 89.3117C15.3087 89.3117 16.0254 89.5041 16.6557 89.889C17.289 90.2708 17.7875 90.8193 18.1511 91.5344C18.5148 92.2465 18.6966 93.0996 18.6966 94.0935ZM17.3057 94.0935C17.3057 93.3359 17.183 92.698 16.9375 92.1799C16.6951 91.6587 16.3617 91.2647 15.9375 90.998C15.5163 90.7283 15.039 90.5935 14.5057 90.5935C13.9693 90.5935 13.4905 90.7283 13.0693 90.998C12.6481 91.2647 12.3148 91.6587 12.0693 92.1799C11.8269 92.698 11.7057 93.3359 11.7057 94.0935C11.7057 94.8511 11.8269 95.4905 12.0693 96.0117C12.3148 96.5299 12.6481 96.9238 13.0693 97.1935C13.4905 97.4602 13.9693 97.5935 14.5057 97.5935C15.039 97.5935 15.5163 97.4602 15.9375 97.1935C16.3617 96.9238 16.6951 96.5299 16.9375 96.0117C17.183 95.4905 17.3057 94.8511 17.3057 94.0935ZM20.4477 98.748V89.439H21.8523V93.8844H21.9659L25.8705 89.439H27.6386L23.8841 93.6299L27.6523 98.748H25.9614L22.9523 94.589L21.8523 95.8526V98.748H20.4477ZM34.9341 89.439H36.3432V95.5617C36.3432 96.2132 36.1902 96.7905 35.8841 97.2935C35.578 97.7935 35.1477 98.1874 34.5932 98.4753C34.0386 98.7602 33.3886 98.9026 32.6432 98.9026C31.9008 98.9026 31.2523 98.7602 30.6977 98.4753C30.1432 98.1874 29.7129 97.7935 29.4068 97.2935C29.1008 96.7905 28.9477 96.2132 28.9477 95.5617V89.439H30.3523V95.448C30.3523 95.8693 30.4447 96.2435 30.6295 96.5708C30.8174 96.898 31.0826 97.1556 31.425 97.3435C31.7674 97.5283 32.1735 97.6208 32.6432 97.6208C33.1159 97.6208 33.5235 97.5283 33.8659 97.3435C34.2114 97.1556 34.475 96.898 34.6568 96.5708C34.8417 96.2435 34.9341 95.8693 34.9341 95.448V89.439ZM38.3852 98.748V89.439H39.7898V97.539H44.008V98.748H38.3852ZM49.8114 89.439L52.4023 97.0208H52.5068L55.0977 89.439H56.6159L53.2659 98.748H51.6432L48.2932 89.439H49.8114ZM59.3648 89.439V98.748H57.9602V89.439H59.3648ZM61.4102 98.748V89.439H62.8148V97.539H67.033V98.748H61.4102ZM68.6352 98.748V89.439H70.0398V97.539H74.258V98.748H68.6352ZM77.1216 98.748H75.6307L78.9807 89.439H80.6034L83.9534 98.748H82.4625L79.8307 91.1299H79.758L77.1216 98.748ZM77.3716 95.1026H82.208V96.2844H77.3716V95.1026ZM91.1602 92.3799C91.0724 92.1041 90.9542 91.8571 90.8057 91.639C90.6602 91.4177 90.486 91.2299 90.283 91.0753C90.0799 90.9177 89.8481 90.798 89.5875 90.7162C89.3299 90.6344 89.0466 90.5935 88.7375 90.5935C88.2133 90.5935 87.7405 90.7283 87.3193 90.998C86.8981 91.2677 86.5648 91.6632 86.3193 92.1844C86.0769 92.7026 85.9557 93.3374 85.9557 94.089C85.9557 94.8435 86.0784 95.4814 86.3239 96.0026C86.5693 96.5238 86.9057 96.9193 87.333 97.189C87.7602 97.4587 88.2466 97.5935 88.792 97.5935C89.2981 97.5935 89.739 97.4905 90.1148 97.2844C90.4936 97.0783 90.786 96.7874 90.992 96.4117C91.2011 96.0329 91.3057 95.5874 91.3057 95.0753L91.6693 95.1435H89.0057V93.9844H92.6648V95.0435C92.6648 95.8253 92.4981 96.5041 92.1648 97.0799C91.8345 97.6526 91.3769 98.095 90.792 98.4071C90.2102 98.7193 89.5436 98.8753 88.792 98.8753C87.9496 98.8753 87.2102 98.6814 86.5739 98.2935C85.9405 97.9056 85.4466 97.3556 85.092 96.6435C84.7375 95.9283 84.5602 95.0799 84.5602 94.098C84.5602 93.3556 84.6633 92.689 84.8693 92.098C85.0754 91.5071 85.3648 91.0056 85.7375 90.5935C86.1133 90.1783 86.5542 89.8617 87.0602 89.6435C87.5693 89.4223 88.1254 89.3117 88.7284 89.3117C89.2314 89.3117 89.6996 89.3859 90.133 89.5344C90.5693 89.6829 90.9572 89.8935 91.2966 90.1662C91.639 90.439 91.9224 90.7632 92.1466 91.139C92.3708 91.5117 92.5224 91.9253 92.6011 92.3799H91.1602ZM94.4477 98.748V89.439H100.284V90.648H95.8523V93.4844H99.9795V94.689H95.8523V97.539H100.339V98.748H94.4477Z" fill="#D40303"/>
<defs>
<clipPath id="clip0_49_5233">
<rect width="14.5972" height="14.5972" fill="white" transform="translate(43.4795 31.8516)"/>
</clipPath>
</defs>
</svg>
